<?xml version="1.0" standalone="no"?>
<!DOCTYPE svg PUBLIC "-//W3C//DTD SVG 20010904//EN"
 "http://www.w3.org/TR/2001/REC-SVG-20010904/DTD/svg10.dtd">
<svg version="1.0" xmlns="http://www.w3.org/2000/svg"
 width="500.000000pt" height="500.000000pt" viewBox="0 0 500.000000 500.000000"
 preserveAspectRatio="xMidYMid meet">
<metadata>
Created by potrace 1.14, written by Peter Selinger 2001-2017
</metadata>
<g transform="translate(0.000000,500.000000) scale(0.100000,-0.100000)"
fill="#000000" stroke="none">
<path d="M2340 2660 l0 -240 50 0 50 0 0 90 c0 65 3 90 13 90 44 0 86 22 101
54 25 53 21 155 -7 197 -25 38 -50 46 -144 48 l-63 1 0 -240z m184 197 c43
-43 46 -171 5 -216 -14 -15 -32 -21 -59 -21 l-40 0 0 -90 0 -90 -40 0 -40 0 0
220 0 220 75 0 c66 0 79 -3 99 -23z"/>
<path d="M2430 2750 c0 -58 1 -61 23 -58 20 3 22 9 22 58 0 49 -2 55 -22 58
-22 3 -23 0 -23 -58z m36 25 c7 -30 -2 -75 -16 -75 -6 0 -10 23 -10 50 0 53
15 67 26 25z"/>
<path d="M2600 2661 l0 -241 100 0 100 0 0 45 0 45 -45 0 -45 0 -2 193 -3 192
-52 3 -53 3 0 -240z m90 29 l0 -190 50 0 c49 0 50 -1 50 -30 l0 -30 -90 0 -90
0 0 220 0 220 40 0 40 0 0 -190z"/>
<path d="M2860 2898 c-12 -71 -45 -465 -40 -471 4 -5 27 -7 51 -5 43 3 44 4
47 41 2 28 8 37 22 37 20 0 30 -19 30 -56 0 -22 4 -24 50 -24 31 0 50 4 50 12
0 27 -41 444 -45 456 -3 8 -29 12 -85 12 -44 0 -80 -1 -80 -2z m151 -20 c1 -2
11 -101 23 -220 l22 -218 -38 0 c-37 0 -38 1 -38 35 0 33 -2 35 -34 35 -31 0
-34 -3 -40 -35 -6 -32 -10 -35 -41 -35 -21 0 -35 5 -35 13 0 6 9 100 20 207
11 107 20 201 20 208 0 8 21 12 70 12 39 0 70 -1 71 -2z"/>
<path d="M2929 2783 c0 -21 -4 -77 -7 -125 l-7 -88 29 0 28 0 -6 68 c-15 159
-18 182 -27 182 -5 0 -9 -17 -10 -37z m23 -155 c2 -34 -1 -48 -9 -48 -15 0
-16 35 -6 95 8 41 10 34 15 -47z"/>
<path d="M3100 2661 l0 -241 50 0 50 0 1 78 1 77 16 -75 17 -75 50 0 50 0 0
235 0 235 -50 0 -50 0 -4 -55 -4 -55 -11 55 -11 55 -52 3 -53 3 0 -240z m114
112 c11 -57 23 -103 28 -103 4 0 8 47 8 105 l0 105 35 0 35 0 0 -221 0 -220
-37 3 -37 3 -21 102 c-11 56 -23 105 -27 109 -5 4 -8 -43 -8 -104 l0 -112 -40
0 -40 0 0 221 0 220 42 -3 43 -3 19 -102z"/>
<path d="M3380 2661 l0 -241 50 0 50 0 1 78 1 77 16 -75 17 -75 50 0 50 0 0
235 0 235 -50 0 -50 0 -4 -55 -4 -55 -11 55 -11 55 -52 3 -53 3 0 -240z m114
112 c11 -57 23 -103 28 -103 4 0 8 47 8 105 l0 105 35 0 35 0 0 -221 0 -220
-37 3 -37 3 -21 102 c-11 56 -23 105 -27 109 -5 4 -8 -43 -8 -104 l0 -112 -40
0 -40 0 0 221 0 220 42 -3 43 -3 19 -102z"/>
<path d="M3660 2660 l0 -240 100 0 100 0 0 55 0 55 -50 0 -50 0 0 45 0 45 45
0 45 0 0 50 0 50 -45 0 c-45 0 -45 0 -45 35 0 35 0 35 45 35 l45 0 0 55 0 55
-95 0 -95 0 0 -240z m180 185 c0 -35 0 -35 -45 -35 l-45 0 0 -55 0 -55 45 0
c45 0 45 0 45 -35 0 -35 0 -35 -45 -35 l-45 0 0 -60 0 -60 45 0 c45 0 45 0 45
-35 l0 -35 -85 0 -85 0 0 220 0 220 85 0 85 0 0 -35z"/>
<path d="M3890 2660 l0 -240 55 0 55 0 0 106 c0 67 4 103 10 99 6 -3 10 -50
10 -106 l0 -99 50 0 50 0 0 113 c0 64 -4 117 -10 123 -7 7 -6 20 5 40 18 34
19 95 2 144 -15 44 -53 59 -154 59 l-73 1 0 -240z m200 200 c16 -16 20 -33 20
-89 0 -64 -2 -71 -27 -90 -21 -15 -24 -20 -11 -21 28 0 38 -34 38 -129 l0 -91
-40 0 -40 0 0 99 c0 81 -3 100 -16 105 -29 11 -34 -4 -34 -105 l0 -99 -40 0
-40 0 0 220 0 220 85 0 c72 0 88 -3 105 -20z"/>
<path d="M3980 2761 c0 -43 3 -51 19 -51 27 0 43 24 39 62 -2 28 -7 34 -30 36
-27 3 -28 2 -28 -47z m40 4 c0 -19 -4 -35 -10 -35 -5 0 -10 16 -10 35 0 19 5
35 10 35 6 0 10 -16 10 -35z"/>
<path d="M830 2660 l0 -230 50 0 50 0 0 100 0 100 45 0 45 0 0 50 0 50 -45 0
c-45 0 -45 0 -45 35 l0 35 50 0 50 0 0 45 0 45 -100 0 -100 0 0 -230z"/>
<path d="M1090 2883 c0 -4 -9 -98 -20 -208 -27 -268 -29 -245 24 -245 45 0 56
10 56 51 0 14 7 19 25 19 22 0 25 -4 25 -35 l0 -35 50 0 49 0 -5 48 c-3 26
-13 128 -22 227 l-17 180 -83 3 c-45 2 -82 -1 -82 -5z m93 -225 c6 -65 4 -78
-8 -78 -11 0 -15 12 -15 49 0 45 10 115 15 109 1 -2 5 -38 8 -80z"/>
<path d="M1330 2660 l0 -230 45 0 44 0 3 133 3 132 18 -110 c28 -167 23 -155
73 -155 49 0 42 -15 68 145 l14 80 1 -112 1 -113 50 0 50 0 0 230 0 230 -74 0
c-87 0 -80 11 -97 -140 -14 -116 -16 -113 -39 53 l-12 87 -74 0 -74 0 0 -230z"/>
<path d="M1740 2660 l0 -230 50 0 50 0 0 230 0 230 -50 0 -50 0 0 -230z"/>
<path d="M1880 2660 l0 -230 95 0 95 0 0 40 0 40 -45 0 -45 0 0 190 0 190 -50
0 -50 0 0 -230z"/>
<path d="M2121 2733 c26 -106 38 -182 39 -230 l0 -73 45 0 45 0 0 74 c0 50 11
121 35 220 19 81 35 151 35 157 0 6 -20 9 -47 7 l-48 -3 -11 -65 -10 -65 -8
50 c-12 85 -12 85 -65 85 l-48 0 38 -157z"/>
<path d="M780 2120 l0 -150 1695 0 1695 0 0 150 0 150 -1695 0 -1695 0 0 -150z
m3380 0 l0 -140 -1685 0 -1685 0 0 140 0 140 1685 0 1685 0 0 -140z"/>
<path d="M970 2140 c0 -27 5 -50 10 -50 6 0 10 9 10 20 0 13 7 20 20 20 11 0
23 7 26 15 9 21 -14 45 -42 45 -22 0 -24 -4 -24 -50z m48 18 c-6 -18 -28 -21
-28 -4 0 9 7 16 16 16 9 0 14 -5 12 -12z"/>
<path d="M1140 2140 c0 -48 1 -50 28 -49 16 1 20 3 10 6 -14 3 -18 15 -18 49
0 24 -4 44 -10 44 -5 0 -10 -22 -10 -50z"/>
<path d="M1310 2165 c-5 -14 -13 -38 -16 -53 -5 -22 -4 -25 7 -14 16 14 49 16
49 2 0 -5 4 -10 9 -10 11 0 -16 87 -30 96 -5 3 -13 -7 -19 -21z m25 -25 c3 -5
1 -10 -4 -10 -6 0 -11 5 -11 10 0 6 2 10 4 10 3 0 8 -4 11 -10z"/>
<path d="M1470 2140 c0 -27 5 -50 10 -50 6 0 10 12 10 28 l1 27 22 -27 c13
-16 26 -28 30 -28 4 0 6 24 6 53 -2 50 -2 51 -8 13 l-6 -40 -25 37 c-14 20
-28 37 -32 37 -5 0 -8 -22 -8 -50z"/>
<path d="M1667 2184 c-11 -11 -8 -94 3 -94 6 0 10 15 10 33 l0 32 26 -32 c14
-18 30 -33 35 -33 5 0 9 23 9 50 0 28 -4 50 -10 50 -5 0 -10 -15 -10 -32 l-1
-33 -27 33 c-15 18 -31 30 -35 26z"/>
<path d="M1860 2140 c0 -27 5 -50 10 -50 6 0 10 23 10 50 0 28 -4 50 -10 50
-5 0 -10 -22 -10 -50z"/>
<path d="M1990 2140 c0 -27 5 -50 10 -50 6 0 10 12 10 28 l1 27 22 -27 c13
-16 26 -28 30 -28 4 0 6 24 6 53 -2 50 -2 51 -8 13 l-6 -40 -25 37 c-14 20
-28 37 -32 37 -5 0 -8 -22 -8 -50z"/>
<path d="M2200 2170 c-23 -23 -24 -33 -10 -61 19 -34 90 -20 90 18 0 8 -11 13
-27 12 -17 -1 -21 -3 -10 -6 9 -2 17 -8 17 -13 0 -14 -32 -21 -46 -9 -31 26 2
73 36 51 11 -7 21 -8 25 -2 6 9 -25 30 -44 30 -6 0 -20 -9 -31 -20z"/>
<path d="M2526 2183 c-10 -10 -7 -93 4 -93 6 0 10 12 11 28 l1 27 11 -27 c6
-16 16 -28 22 -28 6 0 16 12 22 28 l11 27 1 -27 c2 -47 21 -31 21 16 0 61 -16
66 -39 14 l-18 -43 -12 37 c-13 39 -24 52 -35 41z"/>
<path d="M2745 2144 c-9 -25 -14 -48 -10 -52 4 -4 10 -1 12 6 3 6 13 12 23 12
10 0 20 -6 23 -12 2 -7 7 -10 11 -7 8 7 -23 99 -34 99 -4 0 -15 -21 -25 -46z
m30 -4 c3 -5 1 -10 -4 -10 -6 0 -11 5 -11 10 0 6 2 10 4 10 3 0 8 -4 11 -10z"/>
<path d="M2910 2140 c0 -48 1 -50 28 -50 53 0 72 55 30 84 -43 30 -58 21 -58
-34z m58 1 c3 -21 -11 -40 -30 -41 -5 0 -8 16 -8 36 0 28 3 35 18 32 9 -2 19
-14 20 -27z"/>
<path d="M3100 2140 l0 -50 33 1 c23 1 26 3 10 6 -27 5 -31 33 -5 33 16 1 16
1 0 14 -24 17 -23 26 3 26 11 0 17 5 14 10 -3 6 -17 10 -31 10 -22 0 -24 -4
-24 -50z"/>
<path d="M3400 2140 l0 -50 33 1 c23 1 26 3 10 6 -25 5 -32 33 -8 33 8 0 15 5
15 10 0 6 -7 10 -15 10 -8 0 -15 5 -15 10 0 6 9 10 20 10 11 0 20 5 20 10 0 6
-13 10 -30 10 -29 0 -30 -1 -30 -50z"/>
<path d="M3575 2144 c-9 -25 -14 -48 -10 -52 4 -4 10 -1 12 6 3 6 13 12 23 12
10 0 20 -6 23 -12 2 -7 7 -10 11 -7 8 7 -23 99 -34 99 -4 0 -15 -21 -25 -46z
m30 -4 c3 -5 1 -10 -4 -10 -6 0 -11 5 -11 10 0 6 2 10 4 10 3 0 8 -4 11 -10z"/>
<path d="M3753 2183 c-20 -8 -15 -41 7 -48 11 -3 20 -13 20 -21 0 -17 -12 -18
-29 -1 -11 10 -13 9 -9 -3 7 -22 47 -25 55 -4 4 11 -1 23 -15 35 -25 20 -29
34 -7 26 8 -4 17 -2 20 2 4 7 -20 24 -28 20 -1 0 -8 -3 -14 -6z"/>
<path d="M3900 2182 c0 -5 7 -17 15 -28 8 -10 15 -29 15 -41 0 -13 5 -23 10
-23 6 0 10 11 10 25 0 14 7 37 16 50 9 14 12 25 6 25 -6 0 -16 -8 -21 -17 -10
-17 -12 -17 -25 0 -14 18 -26 22 -26 9z"/>
</g>
</svg>
